<mxfile host="app.diagrams.net" modified="2023-05-17T20:19:57.535Z" agent="Mozilla/5.0 (X11; Linux x86_64; rv:109.0) Gecko/20100101 Firefox/112.0" etag="n5OHLxXBvFiuUJ8_xXZg" version="21.3.2" type="device">
  <diagram name="Page-1" id="1xztYjKGVHQwdHu0R7lQ">
    <mxGraphModel dx="1134" dy="593" grid="1" gridSize="10" guides="1" tooltips="1" connect="1" arrows="1" fold="1" page="1" pageScale="1" pageWidth="850" pageHeight="1100" math="0" shadow="0">
      <root>
        <mxCell id="0" />
        <mxCell id="1" parent="0" />
        <mxCell id="ZFaLSCLPEiCu3EuXhEuN-10" value="" style="edgeStyle=isometricEdgeStyle;endArrow=none;html=1;rounded=0;" edge="1" parent="1">
          <mxGeometry width="50" height="100" relative="1" as="geometry">
            <mxPoint x="170" y="140" as="sourcePoint" />
            <mxPoint x="200" y="90" as="targetPoint" />
          </mxGeometry>
        </mxCell>
        <mxCell id="ZFaLSCLPEiCu3EuXhEuN-13" value="&lt;div&gt;SDlLoop&lt;/div&gt;" style="edgeLabel;html=1;align=center;verticalAlign=middle;resizable=0;points=[];" vertex="1" connectable="0" parent="ZFaLSCLPEiCu3EuXhEuN-10">
          <mxGeometry x="0.6675" y="-1" relative="1" as="geometry">
            <mxPoint y="-19" as="offset" />
          </mxGeometry>
        </mxCell>
        <mxCell id="ZFaLSCLPEiCu3EuXhEuN-11" value="" style="edgeStyle=isometricEdgeStyle;endArrow=none;html=1;rounded=0;" edge="1" parent="1">
          <mxGeometry width="50" height="100" relative="1" as="geometry">
            <mxPoint x="340" y="143" as="sourcePoint" />
            <mxPoint x="370" y="93" as="targetPoint" />
          </mxGeometry>
        </mxCell>
        <mxCell id="ZFaLSCLPEiCu3EuXhEuN-21" value="EventSender" style="edgeLabel;html=1;align=center;verticalAlign=middle;resizable=0;points=[];" vertex="1" connectable="0" parent="ZFaLSCLPEiCu3EuXhEuN-11">
          <mxGeometry x="0.6948" relative="1" as="geometry">
            <mxPoint x="3" y="-16" as="offset" />
          </mxGeometry>
        </mxCell>
        <mxCell id="ZFaLSCLPEiCu3EuXhEuN-12" value="" style="edgeStyle=isometricEdgeStyle;endArrow=none;html=1;rounded=0;" edge="1" parent="1">
          <mxGeometry width="50" height="100" relative="1" as="geometry">
            <mxPoint x="520" y="140" as="sourcePoint" />
            <mxPoint x="550" y="90" as="targetPoint" />
          </mxGeometry>
        </mxCell>
        <mxCell id="ZFaLSCLPEiCu3EuXhEuN-25" value="SnapshotReceiver" style="edgeLabel;html=1;align=center;verticalAlign=middle;resizable=0;points=[];" vertex="1" connectable="0" parent="ZFaLSCLPEiCu3EuXhEuN-12">
          <mxGeometry x="0.5956" y="-1" relative="1" as="geometry">
            <mxPoint x="7" y="-21" as="offset" />
          </mxGeometry>
        </mxCell>
        <mxCell id="ZFaLSCLPEiCu3EuXhEuN-14" value="&lt;div&gt;Client&lt;br&gt;&lt;/div&gt;&lt;div&gt;EVENTQ&lt;br&gt;&lt;/div&gt;" style="shape=cylinder3;whiteSpace=wrap;html=1;boundedLbl=1;backgroundOutline=1;size=15;direction=south;" vertex="1" parent="1">
          <mxGeometry x="210" y="240" width="90" height="50" as="geometry" />
        </mxCell>
        <mxCell id="ZFaLSCLPEiCu3EuXhEuN-17" value="" style="curved=1;endArrow=classic;html=1;rounded=0;entryX=0.5;entryY=1;entryDx=0;entryDy=0;entryPerimeter=0;" edge="1" parent="1" target="ZFaLSCLPEiCu3EuXhEuN-14">
          <mxGeometry width="50" height="50" relative="1" as="geometry">
            <mxPoint x="170" y="140" as="sourcePoint" />
            <mxPoint x="270" y="180" as="targetPoint" />
            <Array as="points">
              <mxPoint x="220" y="170" />
              <mxPoint x="180" y="220" />
            </Array>
          </mxGeometry>
        </mxCell>
        <mxCell id="ZFaLSCLPEiCu3EuXhEuN-18" value="push()" style="edgeLabel;html=1;align=center;verticalAlign=middle;resizable=0;points=[];" vertex="1" connectable="0" parent="ZFaLSCLPEiCu3EuXhEuN-17">
          <mxGeometry x="0.1126" y="-5" relative="1" as="geometry">
            <mxPoint as="offset" />
          </mxGeometry>
        </mxCell>
        <mxCell id="ZFaLSCLPEiCu3EuXhEuN-19" value="&lt;div&gt;Los eventos de SDL &lt;br&gt;&lt;/div&gt;&lt;div&gt;(movimiento/click)&lt;br&gt;&lt;/div&gt;&lt;div&gt;se mapean a &#39;Event&#39;&lt;/div&gt;&lt;div&gt;y se pushean a la queue&lt;br&gt;&lt;/div&gt;" style="text;html=1;align=center;verticalAlign=middle;resizable=0;points=[];autosize=1;strokeColor=none;fillColor=none;" vertex="1" parent="1">
          <mxGeometry x="10" y="105" width="150" height="70" as="geometry" />
        </mxCell>
        <mxCell id="ZFaLSCLPEiCu3EuXhEuN-22" value="" style="curved=1;endArrow=classic;html=1;rounded=0;exitX=0.5;exitY=0;exitDx=0;exitDy=0;exitPerimeter=0;" edge="1" parent="1" source="ZFaLSCLPEiCu3EuXhEuN-14">
          <mxGeometry width="50" height="50" relative="1" as="geometry">
            <mxPoint x="390" y="260" as="sourcePoint" />
            <mxPoint x="340" y="140" as="targetPoint" />
            <Array as="points">
              <mxPoint x="360" y="260" />
              <mxPoint x="330" y="220" />
              <mxPoint x="300" y="200" />
            </Array>
          </mxGeometry>
        </mxCell>
        <mxCell id="ZFaLSCLPEiCu3EuXhEuN-23" value="pop()" style="edgeLabel;html=1;align=center;verticalAlign=middle;resizable=0;points=[];" vertex="1" connectable="0" parent="ZFaLSCLPEiCu3EuXhEuN-22">
          <mxGeometry x="0.2903" y="-1" relative="1" as="geometry">
            <mxPoint x="15" y="-25" as="offset" />
          </mxGeometry>
        </mxCell>
        <mxCell id="ZFaLSCLPEiCu3EuXhEuN-26" value="&lt;div&gt;popea eventos&lt;/div&gt;&lt;div&gt;y los envia al server&lt;br&gt;&lt;/div&gt;" style="text;html=1;align=center;verticalAlign=middle;resizable=0;points=[];autosize=1;strokeColor=none;fillColor=none;" vertex="1" parent="1">
          <mxGeometry x="350" y="90" width="130" height="40" as="geometry" />
        </mxCell>
        <mxCell id="ZFaLSCLPEiCu3EuXhEuN-29" value="" style="edgeStyle=isometricEdgeStyle;endArrow=none;html=1;rounded=0;" edge="1" parent="1">
          <mxGeometry width="50" height="100" relative="1" as="geometry">
            <mxPoint x="710" y="140" as="sourcePoint" />
            <mxPoint x="740" y="90" as="targetPoint" />
          </mxGeometry>
        </mxCell>
        <mxCell id="ZFaLSCLPEiCu3EuXhEuN-30" value="&lt;div&gt;Drawner&lt;/div&gt;" style="edgeLabel;html=1;align=center;verticalAlign=middle;resizable=0;points=[];" vertex="1" connectable="0" parent="ZFaLSCLPEiCu3EuXhEuN-29">
          <mxGeometry x="0.6675" y="-1" relative="1" as="geometry">
            <mxPoint y="-19" as="offset" />
          </mxGeometry>
        </mxCell>
        <mxCell id="ZFaLSCLPEiCu3EuXhEuN-34" value="" style="curved=1;endArrow=classic;html=1;rounded=0;entryX=0.5;entryY=0;entryDx=0;entryDy=0;" edge="1" parent="1" target="ZFaLSCLPEiCu3EuXhEuN-31">
          <mxGeometry width="50" height="50" relative="1" as="geometry">
            <mxPoint x="710" y="140" as="sourcePoint" />
            <mxPoint x="790" y="200" as="targetPoint" />
            <Array as="points">
              <mxPoint x="750" y="180" />
              <mxPoint x="700" y="170" />
              <mxPoint x="720" y="200" />
            </Array>
          </mxGeometry>
        </mxCell>
        <mxCell id="ZFaLSCLPEiCu3EuXhEuN-35" value="render" style="edgeLabel;html=1;align=center;verticalAlign=middle;resizable=0;points=[];" vertex="1" connectable="0" parent="ZFaLSCLPEiCu3EuXhEuN-34">
          <mxGeometry x="0.5909" y="-8" relative="1" as="geometry">
            <mxPoint as="offset" />
          </mxGeometry>
        </mxCell>
        <mxCell id="ZFaLSCLPEiCu3EuXhEuN-38" value="" style="edgeStyle=isometricEdgeStyle;endArrow=none;html=1;rounded=0;" edge="1" parent="1">
          <mxGeometry width="50" height="100" relative="1" as="geometry">
            <mxPoint x="660" y="650" as="sourcePoint" />
            <mxPoint x="690" y="600" as="targetPoint" />
          </mxGeometry>
        </mxCell>
        <mxCell id="ZFaLSCLPEiCu3EuXhEuN-39" value="Sender" style="edgeLabel;html=1;align=center;verticalAlign=middle;resizable=0;points=[];" vertex="1" connectable="0" parent="ZFaLSCLPEiCu3EuXhEuN-38">
          <mxGeometry x="0.6675" y="-1" relative="1" as="geometry">
            <mxPoint y="-19" as="offset" />
          </mxGeometry>
        </mxCell>
        <mxCell id="ZFaLSCLPEiCu3EuXhEuN-40" value="" style="edgeStyle=isometricEdgeStyle;endArrow=none;html=1;rounded=0;" edge="1" parent="1">
          <mxGeometry width="50" height="100" relative="1" as="geometry">
            <mxPoint x="200" y="660" as="sourcePoint" />
            <mxPoint x="230" y="610" as="targetPoint" />
          </mxGeometry>
        </mxCell>
        <mxCell id="ZFaLSCLPEiCu3EuXhEuN-41" value="Receiver" style="edgeLabel;html=1;align=center;verticalAlign=middle;resizable=0;points=[];" vertex="1" connectable="0" parent="ZFaLSCLPEiCu3EuXhEuN-40">
          <mxGeometry x="0.6675" y="-1" relative="1" as="geometry">
            <mxPoint y="-19" as="offset" />
          </mxGeometry>
        </mxCell>
        <mxCell id="ZFaLSCLPEiCu3EuXhEuN-44" value="" style="swimlane;startSize=0;" vertex="1" parent="1">
          <mxGeometry x="10" y="10" width="870" height="450" as="geometry" />
        </mxCell>
        <mxCell id="ZFaLSCLPEiCu3EuXhEuN-31" value="&lt;div&gt;&#39;partida&#39;&lt;/div&gt;&lt;div&gt;(vista)&lt;br&gt;&lt;/div&gt;" style="ellipse;whiteSpace=wrap;html=1;" vertex="1" parent="ZFaLSCLPEiCu3EuXhEuN-44">
          <mxGeometry x="640" y="250" width="120" height="80" as="geometry" />
        </mxCell>
        <mxCell id="ZFaLSCLPEiCu3EuXhEuN-57" value="SnapshotQ" style="shape=cylinder3;whiteSpace=wrap;html=1;boundedLbl=1;backgroundOutline=1;size=15;direction=south;" vertex="1" parent="ZFaLSCLPEiCu3EuXhEuN-44">
          <mxGeometry x="500" y="220" width="100" height="40" as="geometry" />
        </mxCell>
        <mxCell id="ZFaLSCLPEiCu3EuXhEuN-58" value="" style="curved=1;endArrow=classic;html=1;rounded=0;entryX=0;entryY=0.5;entryDx=0;entryDy=0;entryPerimeter=0;" edge="1" parent="ZFaLSCLPEiCu3EuXhEuN-44" target="ZFaLSCLPEiCu3EuXhEuN-57">
          <mxGeometry width="50" height="50" relative="1" as="geometry">
            <mxPoint x="510" y="130" as="sourcePoint" />
            <mxPoint x="630" y="130" as="targetPoint" />
            <Array as="points">
              <mxPoint x="560" y="160" />
              <mxPoint x="510" y="190" />
            </Array>
          </mxGeometry>
        </mxCell>
        <mxCell id="ZFaLSCLPEiCu3EuXhEuN-59" value="push()" style="edgeLabel;html=1;align=center;verticalAlign=middle;resizable=0;points=[];" vertex="1" connectable="0" parent="ZFaLSCLPEiCu3EuXhEuN-58">
          <mxGeometry x="-0.2739" y="7" relative="1" as="geometry">
            <mxPoint as="offset" />
          </mxGeometry>
        </mxCell>
        <mxCell id="ZFaLSCLPEiCu3EuXhEuN-61" value="" style="curved=1;endArrow=classic;html=1;rounded=0;exitX=0.5;exitY=0;exitDx=0;exitDy=0;exitPerimeter=0;" edge="1" parent="ZFaLSCLPEiCu3EuXhEuN-44" source="ZFaLSCLPEiCu3EuXhEuN-57">
          <mxGeometry width="50" height="50" relative="1" as="geometry">
            <mxPoint x="580" y="210" as="sourcePoint" />
            <mxPoint x="700" y="130" as="targetPoint" />
            <Array as="points">
              <mxPoint x="630" y="210" />
              <mxPoint x="620" y="180" />
            </Array>
          </mxGeometry>
        </mxCell>
        <mxCell id="ZFaLSCLPEiCu3EuXhEuN-62" value="pop()" style="edgeLabel;html=1;align=center;verticalAlign=middle;resizable=0;points=[];" vertex="1" connectable="0" parent="ZFaLSCLPEiCu3EuXhEuN-61">
          <mxGeometry x="0.3162" y="-6" relative="1" as="geometry">
            <mxPoint as="offset" />
          </mxGeometry>
        </mxCell>
        <mxCell id="ZFaLSCLPEiCu3EuXhEuN-27" value="&lt;div&gt;recive snapshot de&lt;/div&gt;&lt;div&gt;&#39;la partida&#39; y lo pushea&lt;br&gt;&lt;/div&gt;" style="text;html=1;align=center;verticalAlign=middle;resizable=0;points=[];autosize=1;strokeColor=none;fillColor=none;" vertex="1" parent="ZFaLSCLPEiCu3EuXhEuN-44">
          <mxGeometry x="530" y="80" width="140" height="40" as="geometry" />
        </mxCell>
        <mxCell id="ZFaLSCLPEiCu3EuXhEuN-63" value="&lt;div&gt;popea snapshots, actualiza&lt;/div&gt;&lt;div&gt;la partida y la dibuja&lt;br&gt;&lt;/div&gt;" style="text;html=1;align=center;verticalAlign=middle;resizable=0;points=[];autosize=1;strokeColor=none;fillColor=none;" vertex="1" parent="ZFaLSCLPEiCu3EuXhEuN-44">
          <mxGeometry x="700" y="83" width="170" height="40" as="geometry" />
        </mxCell>
        <mxCell id="ZFaLSCLPEiCu3EuXhEuN-24" value="&lt;b&gt;&lt;font style=&quot;font-size: 24px;&quot;&gt;CLIENT SIDE&lt;/font&gt;&lt;/b&gt;" style="text;html=1;align=center;verticalAlign=middle;resizable=0;points=[];autosize=1;strokeColor=none;fillColor=none;" vertex="1" parent="ZFaLSCLPEiCu3EuXhEuN-44">
          <mxGeometry x="-5" y="5" width="170" height="40" as="geometry" />
        </mxCell>
        <mxCell id="ZFaLSCLPEiCu3EuXhEuN-47" value="&lt;div&gt;se bloquea en skt.recv&lt;/div&gt;&lt;div&gt;esperando un &#39;Event&#39; y lo pushea a &lt;br&gt;&lt;/div&gt;&lt;div&gt;la queue de eventos &lt;br&gt;&lt;/div&gt;" style="text;html=1;align=center;verticalAlign=middle;resizable=0;points=[];autosize=1;strokeColor=none;fillColor=none;" vertex="1" parent="1">
          <mxGeometry x="200" y="600" width="210" height="60" as="geometry" />
        </mxCell>
        <mxCell id="ZFaLSCLPEiCu3EuXhEuN-48" value="" style="curved=1;endArrow=classic;html=1;rounded=0;" edge="1" parent="1" source="ZFaLSCLPEiCu3EuXhEuN-26">
          <mxGeometry width="50" height="50" relative="1" as="geometry">
            <mxPoint x="390" y="320" as="sourcePoint" />
            <mxPoint x="220" y="600" as="targetPoint" />
            <Array as="points">
              <mxPoint x="450" y="290" />
              <mxPoint x="390" y="270" />
              <mxPoint x="430" y="420" />
              <mxPoint x="230" y="470" />
            </Array>
          </mxGeometry>
        </mxCell>
        <mxCell id="ZFaLSCLPEiCu3EuXhEuN-49" value="send(Event)" style="edgeLabel;html=1;align=center;verticalAlign=middle;resizable=0;points=[];" vertex="1" connectable="0" parent="ZFaLSCLPEiCu3EuXhEuN-48">
          <mxGeometry x="-0.3831" y="-2" relative="1" as="geometry">
            <mxPoint as="offset" />
          </mxGeometry>
        </mxCell>
        <mxCell id="ZFaLSCLPEiCu3EuXhEuN-50" value="&lt;div&gt;SV &lt;br&gt;&lt;/div&gt;&lt;div&gt;EVENT Q&lt;br&gt;&lt;/div&gt;" style="shape=cylinder3;whiteSpace=wrap;html=1;boundedLbl=1;backgroundOutline=1;size=15;direction=south;" vertex="1" parent="1">
          <mxGeometry x="140" y="790" width="100" height="60" as="geometry" />
        </mxCell>
        <mxCell id="ZFaLSCLPEiCu3EuXhEuN-52" value="" style="curved=1;endArrow=classic;html=1;rounded=0;entryX=0.5;entryY=1;entryDx=0;entryDy=0;entryPerimeter=0;" edge="1" parent="1" target="ZFaLSCLPEiCu3EuXhEuN-50">
          <mxGeometry width="50" height="50" relative="1" as="geometry">
            <mxPoint x="200" y="660" as="sourcePoint" />
            <mxPoint x="370" y="410" as="targetPoint" />
            <Array as="points">
              <mxPoint x="230" y="690" />
              <mxPoint x="170" y="740" />
              <mxPoint x="130" y="740" />
              <mxPoint x="100" y="800" />
            </Array>
          </mxGeometry>
        </mxCell>
        <mxCell id="ZFaLSCLPEiCu3EuXhEuN-53" value="push()" style="edgeLabel;html=1;align=center;verticalAlign=middle;resizable=0;points=[];" vertex="1" connectable="0" parent="ZFaLSCLPEiCu3EuXhEuN-52">
          <mxGeometry x="-0.3883" y="11" relative="1" as="geometry">
            <mxPoint x="-76" y="-12" as="offset" />
          </mxGeometry>
        </mxCell>
        <mxCell id="ZFaLSCLPEiCu3EuXhEuN-65" value="&lt;div&gt;&#39;partida&#39;&lt;/div&gt;" style="ellipse;whiteSpace=wrap;html=1;" vertex="1" parent="1">
          <mxGeometry x="340" y="690" width="120" height="80" as="geometry" />
        </mxCell>
        <mxCell id="ZFaLSCLPEiCu3EuXhEuN-66" value="" style="curved=1;endArrow=classic;html=1;rounded=0;exitX=0.5;exitY=0;exitDx=0;exitDy=0;exitPerimeter=0;entryX=0.5;entryY=1;entryDx=0;entryDy=0;" edge="1" parent="1" source="ZFaLSCLPEiCu3EuXhEuN-50" target="ZFaLSCLPEiCu3EuXhEuN-65">
          <mxGeometry width="50" height="50" relative="1" as="geometry">
            <mxPoint x="280" y="840" as="sourcePoint" />
            <mxPoint x="330" y="790" as="targetPoint" />
            <Array as="points">
              <mxPoint x="330" y="840" />
              <mxPoint x="280" y="790" />
              <mxPoint x="400" y="820" />
            </Array>
          </mxGeometry>
        </mxCell>
        <mxCell id="ZFaLSCLPEiCu3EuXhEuN-67" value="pop()" style="edgeLabel;html=1;align=center;verticalAlign=middle;resizable=0;points=[];" vertex="1" connectable="0" parent="ZFaLSCLPEiCu3EuXhEuN-66">
          <mxGeometry x="0.3542" y="-12" relative="1" as="geometry">
            <mxPoint as="offset" />
          </mxGeometry>
        </mxCell>
        <mxCell id="ZFaLSCLPEiCu3EuXhEuN-68" value="&lt;div&gt;procesa eventos popeados,&lt;/div&gt;&lt;div&gt;actualiza el estado de la &lt;br&gt;&lt;/div&gt;&lt;div&gt;&#39;partida&#39; y envia un &#39;snapshot&#39;&lt;/div&gt;&lt;div&gt;a cada jugador en la partida&lt;br&gt;&lt;/div&gt;" style="text;html=1;align=center;verticalAlign=middle;resizable=0;points=[];autosize=1;strokeColor=none;fillColor=none;" vertex="1" parent="1">
          <mxGeometry x="450" y="710" width="180" height="70" as="geometry" />
        </mxCell>
        <mxCell id="ZFaLSCLPEiCu3EuXhEuN-69" value="snapshot Q" style="shape=cylinder3;whiteSpace=wrap;html=1;boundedLbl=1;backgroundOutline=1;size=15;direction=south;" vertex="1" parent="1">
          <mxGeometry x="550" y="860" width="110" height="40" as="geometry" />
        </mxCell>
        <mxCell id="ZFaLSCLPEiCu3EuXhEuN-70" value="" style="curved=1;endArrow=classic;html=1;rounded=0;exitX=1;exitY=1;exitDx=0;exitDy=0;entryX=0.5;entryY=1;entryDx=0;entryDy=0;entryPerimeter=0;" edge="1" parent="1" source="ZFaLSCLPEiCu3EuXhEuN-65" target="ZFaLSCLPEiCu3EuXhEuN-69">
          <mxGeometry width="50" height="50" relative="1" as="geometry">
            <mxPoint x="450" y="890" as="sourcePoint" />
            <mxPoint x="500" y="840" as="targetPoint" />
            <Array as="points">
              <mxPoint x="470" y="790" />
              <mxPoint x="450" y="830" />
              <mxPoint x="500" y="830" />
              <mxPoint x="530" y="890" />
            </Array>
          </mxGeometry>
        </mxCell>
        <mxCell id="ZFaLSCLPEiCu3EuXhEuN-71" value="push()" style="edgeLabel;html=1;align=center;verticalAlign=middle;resizable=0;points=[];" vertex="1" connectable="0" parent="ZFaLSCLPEiCu3EuXhEuN-70">
          <mxGeometry x="0.2825" y="-4" relative="1" as="geometry">
            <mxPoint y="-1" as="offset" />
          </mxGeometry>
        </mxCell>
        <mxCell id="ZFaLSCLPEiCu3EuXhEuN-72" value="" style="curved=1;endArrow=classic;html=1;rounded=0;exitX=0.5;exitY=0;exitDx=0;exitDy=0;exitPerimeter=0;" edge="1" parent="1" source="ZFaLSCLPEiCu3EuXhEuN-69">
          <mxGeometry width="50" height="50" relative="1" as="geometry">
            <mxPoint x="670" y="870" as="sourcePoint" />
            <mxPoint x="660" y="650" as="targetPoint" />
            <Array as="points">
              <mxPoint x="720" y="870" />
              <mxPoint x="670" y="820" />
            </Array>
          </mxGeometry>
        </mxCell>
        <mxCell id="ZFaLSCLPEiCu3EuXhEuN-73" value="pop()" style="edgeLabel;html=1;align=center;verticalAlign=middle;resizable=0;points=[];" vertex="1" connectable="0" parent="ZFaLSCLPEiCu3EuXhEuN-72">
          <mxGeometry x="0.2266" y="-7" relative="1" as="geometry">
            <mxPoint as="offset" />
          </mxGeometry>
        </mxCell>
        <mxCell id="ZFaLSCLPEiCu3EuXhEuN-74" value="&lt;div&gt;envia snapshot de &lt;br&gt;&lt;/div&gt;&lt;div&gt;la &#39;partida&#39; usando skt&lt;br&gt;&lt;/div&gt;" style="text;html=1;align=center;verticalAlign=middle;resizable=0;points=[];autosize=1;strokeColor=none;fillColor=none;" vertex="1" parent="1">
          <mxGeometry x="670" y="590" width="140" height="40" as="geometry" />
        </mxCell>
        <mxCell id="ZFaLSCLPEiCu3EuXhEuN-75" value="" style="curved=1;endArrow=classic;html=1;rounded=0;" edge="1" parent="1">
          <mxGeometry width="50" height="50" relative="1" as="geometry">
            <mxPoint x="680" y="570" as="sourcePoint" />
            <mxPoint x="510" y="90" as="targetPoint" />
            <Array as="points">
              <mxPoint x="610" y="540" />
              <mxPoint x="610" y="470" />
              <mxPoint x="430" y="340" />
            </Array>
          </mxGeometry>
        </mxCell>
        <mxCell id="ZFaLSCLPEiCu3EuXhEuN-76" value="send(snapshot)" style="edgeLabel;html=1;align=center;verticalAlign=middle;resizable=0;points=[];" vertex="1" connectable="0" parent="ZFaLSCLPEiCu3EuXhEuN-75">
          <mxGeometry x="-0.1686" y="3" relative="1" as="geometry">
            <mxPoint x="96" y="111" as="offset" />
          </mxGeometry>
        </mxCell>
        <mxCell id="ZFaLSCLPEiCu3EuXhEuN-78" value="" style="swimlane;startSize=0;" vertex="1" parent="1">
          <mxGeometry x="10" y="490" width="870" height="440" as="geometry" />
        </mxCell>
        <mxCell id="ZFaLSCLPEiCu3EuXhEuN-37" value="&lt;b&gt;&lt;font style=&quot;font-size: 24px;&quot;&gt;SERVER SIDE&lt;/font&gt;&lt;/b&gt;" style="text;html=1;align=center;verticalAlign=middle;resizable=0;points=[];autosize=1;strokeColor=none;fillColor=none;" vertex="1" parent="ZFaLSCLPEiCu3EuXhEuN-78">
          <mxGeometry y="10" width="180" height="40" as="geometry" />
        </mxCell>
      </root>
    </mxGraphModel>
  </diagram>
</mxfile>
